<svg version="1.1" viewBox="0.0 0.0 658.0 366.0" fill="none" stroke="none" stroke-linecap="square" stroke-miterlimit="10" width="658" height="366" xmlns:xlink="http://www.w3.org/1999/xlink" xmlns="http://www.w3.org/2000/svg"><path fill="#ffffff" fill-opacity="0.0" d="M0 0L658.0 0L658.0 366.0L0 366.0L0 0Z" fill-rule="nonzero"/><path stroke="#d9d8d8" stroke-width="1.0" stroke-linecap="butt" d="M157.5 24.5L157.5 327.5" fill-rule="nonzero"/>
<path stroke="#d9d8d8" stroke-width="1.0" stroke-linecap="butt" d="M291.5 24.5L291.5 327.5" fill-rule="nonzero"/><path stroke="#333333" stroke-width="1.0" stroke-linecap="butt" d="M425.5 24.5L425.5 327.5" fill-rule="nonzero"/><path stroke="#d9d8d8" stroke-width="1.0" stroke-linecap="butt" d="M559.5 24.5L559.5 327.5" fill-rule="nonzero"/><path stroke="#dcdcdc" stroke-width="1.0" stroke-linecap="butt" d="M41.5 327.5L639.5 327.5" fill-rule="nonzero"/><path stroke="#333333" stroke-width="1.0" stroke-linecap="butt" d="M41.5 251.5L639.5 251.5" fill-rule="nonzero"/><path stroke="#dcdcdc" stroke-width="1.0" stroke-linecap="butt" d="M41.5 176.5L639.5 176.5" fill-rule="nonzero"/><path stroke="#dcdcdc" stroke-width="1.0" stroke-linecap="butt" d="M41.5 100.5L639.5 100.5" fill-rule="nonzero"/><path stroke="#dcdcdc" stroke-width="1.0" stroke-linecap="butt" d="M41.5 24.5L639.5 24.5" fill-rule="nonzero"/><clipPath id="id_0"><path d="M41.3 24.3L639.7 24.3L639.7 327.7L41.3 327.7L41.3 24.3Z" clip-rule="nonzero"/></clipPath><path stroke="#b7b7b7" stroke-width="4.0" stroke-linecap="butt" clip-path="url(#id_0)" d="M0 74.958664L639.7 209.80362" fill-rule="nonzero"/><path stroke="#0060ff" stroke-width="4.0" stroke-linecap="butt" clip-path="url(#id_0)" d="M0 274.51813L639.7 207.85957" fill-rule="nonzero"/><path stroke="#c5dbff" stroke-width="4.0" stroke-linecap="butt" clip-path="url(#id_0)" d="M0 300.07028L639.7 227.54448" fill-rule="nonzero"/><path fill="#000000" fill-opacity="0.0" clip-path="url(#id_0)" d="M44.3 83.66446C44.3 85.32131 42.956856 86.66446 41.3 86.66446C39.643147 86.66446 38.3 85.32131 38.3 83.66446C38.3 82.00761 39.643147 80.66446 41.3 80.66446C42.956856 80.66446 44.3 82.00761 44.3 83.66446Z" fill-rule="nonzero"/><path fill="#000000" fill-opacity="0.0" clip-path="url(#id_0)" d="M642.7 209.80362C642.7 211.46046 641.3569 212.80362 639.7 212.80362C638.04315 212.80362 636.7 211.46046 636.7 209.80362C636.7 208.14676 638.04315 206.80362 639.7 206.80362C641.3569 206.80362 642.7 208.14676 642.7 209.80362Z" fill-rule="nonzero"/><path fill="#000000" fill-opacity="0.0" clip-path="url(#id_0)" d="M44.3 270.21454C44.3 271.8714 42.956856 273.21454 41.3 273.21454C39.643147 273.21454 38.3 271.8714 38.3 270.21454C38.3 268.55768 39.643147 267.21454 41.3 267.21454C42.956856 267.21454 44.3 268.55768 44.3 270.21454Z" fill-rule="nonzero"/><path fill="#000000" fill-opacity="0.0" clip-path="url(#id_0)" d="M642.7 207.85957C642.7 209.51643 641.3569 210.85957 639.7 210.85957C638.04315 210.85957 636.7 209.51643 636.7 207.85957C636.7 206.20273 638.04315 204.85957 639.7 204.85957C641.3569 204.85957 642.7 206.20273 642.7 207.85957Z" fill-rule="nonzero"/><path fill="#000000" fill-opacity="0.0" clip-path="url(#id_0)" d="M44.3 295.3879C44.3 297.04477 42.956856 298.3879 41.3 298.3879C39.643147 298.3879 38.3 297.04477 38.3 295.3879C38.3 293.73105 39.643147 292.3879 41.3 292.3879C42.956856 292.3879 44.3 293.73105 44.3 295.3879Z" fill-rule="nonzero"/><path fill="#000000" fill-opacity="0.0" clip-path="url(#id_0)" d="M642.7 227.54448C642.7 229.20132 641.3569 230.54448 639.7 230.54448C638.04315 230.54448 636.7 229.20132 636.7 227.54448C636.7 225.88762 638.04315 224.54448 639.7 224.54448C641.3569 224.54448 642.7 225.88762 642.7 227.54448Z" fill-rule="nonzero"/><path fill="#b7b7b7" d="M23.39375 327.575L23.39375 328.16876L19.20625 328.16876L19.20625 327.575L23.39375 327.575ZM26.175 324.98126L26.175 326.9969Q26.534374 326.84064 26.8625 326.7625Q27.190624 326.6844 27.4875 326.6844Q28.26875 326.6844 28.784374 327.23126Q29.3 327.77814 29.3 328.65314Q29.3 329.6375 28.70625 330.2469Q28.128124 330.84064 27.253124 330.84064Q26.675 330.84064 26.14375 330.59064Q25.753124 330.40314 25.440624 330.1375Q25.253124 329.98126 25.253124 329.8719Q25.253124 329.77814 25.315624 329.71564Q25.378124 329.65314 25.45625 329.65314Q25.534374 329.65314 25.628124 329.7469Q26.3625 330.4344 27.2375 330.4344Q27.95625 330.4344 28.425 329.95Q28.89375 329.45 28.89375 328.6375Q28.89375 327.95 28.4875 327.52814Q28.08125 327.10626 27.45625 327.10626Q26.815624 327.10626 26.175 327.4344Q26.01875 327.5125 25.95625 327.5125Q25.8625 327.5125 25.8 327.46564Q25.753124 327.40314 25.753124 327.29376L25.753124 324.575L28.628124 324.575Q28.76875 324.575 28.83125 324.6375Q28.89375 324.6844 28.89375 324.77814Q28.89375 324.8719 28.83125 324.9344Q28.76875 324.98126 28.628124 324.98126L26.175 324.98126ZM35.190624 327.1375L35.190624 328.15314Q35.190624 329.46564 34.55 330.2469Q34.065624 330.84064 33.315624 330.84064Q32.940624 330.84064 32.6125 330.7Q32.3 330.5594 32.08125 330.29376Q31.940624 330.1375 31.76875 329.77814Q31.596874 329.41876 31.534374 329.1219Q31.425 328.7 31.425 328.15314L31.425 327.1375Q31.425 325.8094 32.05 325.02814Q32.534374 324.41876 33.3 324.41876Q33.659374 324.41876 33.971874 324.575Q34.3 324.71564 34.51875 324.96564Q34.659374 325.1375 34.83125 325.4969Q35.003124 325.85626 35.08125 326.1375Q35.190624 326.5594 35.190624 327.1375ZM34.76875 327.1844Q34.76875 326.60626 34.596874 326.10626Q34.440624 325.60626 34.2375 325.3094Q34.1125 325.1375 33.925 325.0125Q33.64375 324.84064 33.3 324.84064Q32.6125 324.84064 32.221874 325.54376Q31.83125 326.2469 31.83125 327.1844L31.83125 328.09064Q31.83125 328.66876 31.9875 329.16876Q32.159374 329.66876 32.3625 329.96564Q32.4875 330.1375 32.675 330.2625Q32.95625 330.4344 33.315624 330.4344Q33.9875 330.4344 34.378124 329.73126Q34.76875 329.02814 34.76875 328.09064L34.76875 327.1844Z" fill-rule="nonzero"/><path fill="#b7b7b7" d="M35.190624 251.2875L35.190624 252.30313Q35.190624 253.61563 34.55 254.39688Q34.065624 254.99063 33.315624 254.99063Q32.940624 254.99063 32.6125 254.85Q32.3 254.70938 32.08125 254.44376Q31.940624 254.2875 31.76875 253.92813Q31.596874 253.56876 31.534374 253.27188Q31.425 252.85 31.425 252.30313L31.425 251.2875Q31.425 249.95938 32.05 249.17813Q32.534374 248.56876 33.3 248.56876Q33.659374 248.56876 33.971874 248.725Q34.3 248.86563 34.51875 249.11563Q34.659374 249.2875 34.83125 249.64688Q35.003124 250.00626 35.08125 250.2875Q35.190624 250.70938 35.190624 251.2875ZM34.76875 251.33438Q34.76875 250.75626 34.596874 250.25626Q34.440624 249.75626 34.2375 249.45938Q34.1125 249.2875 33.925 249.1625Q33.64375 248.99063 33.3 248.99063Q32.6125 248.99063 32.221874 249.69376Q31.83125 250.39688 31.83125 251.33438L31.83125 252.24063Q31.83125 252.81876 31.9875 253.31876Q32.159374 253.81876 32.3625 254.11563Q32.4875 254.2875 32.675 254.4125Q32.95625 254.58438 33.315624 254.58438Q33.9875 254.58438 34.378124 253.88126Q34.76875 253.17813 34.76875 252.24063L34.76875 251.33438Z" fill-rule="nonzero"/><path fill="#b7b7b7" d="M26.175 173.28125L26.175 175.29688Q26.534374 175.14062 26.8625 175.0625Q27.190624 174.98438 27.4875 174.98438Q28.26875 174.98438 28.784374 175.53125Q29.3 176.07812 29.3 176.95312Q29.3 177.9375 28.70625 178.54688Q28.128124 179.14062 27.253124 179.14062Q26.675 179.14062 26.14375 178.89062Q25.753124 178.70312 25.440624 178.4375Q25.253124 178.28125 25.253124 178.17188Q25.253124 178.07812 25.315624 178.01562Q25.378124 177.95312 25.45625 177.95312Q25.534374 177.95312 25.628124 178.04688Q26.3625 178.73438 27.2375 178.73438Q27.95625 178.73438 28.425 178.25Q28.89375 177.75 28.89375 176.9375Q28.89375 176.25 28.4875 175.82812Q28.08125 175.40625 27.45625 175.40625Q26.815624 175.40625 26.175 175.73438Q26.01875 175.8125 25.95625 175.8125Q25.8625 175.8125 25.8 175.76562Q25.753124 175.70312 25.753124 175.59375L25.753124 172.875L28.628124 172.875Q28.76875 172.875 28.83125 172.9375Q28.89375 172.98438 28.89375 173.07812Q28.89375 173.17188 28.83125 173.23438Q28.76875 173.28125 28.628124 173.28125L26.175 173.28125ZM35.190624 175.4375L35.190624 176.45312Q35.190624 177.76562 34.55 178.54688Q34.065624 179.14062 33.315624 179.14062Q32.940624 179.14062 32.6125 179.0Q32.3 178.85938 32.08125 178.59375Q31.940624 178.4375 31.76875 178.07812Q31.596874 177.71875 31.534374 177.42188Q31.425 177.0 31.425 176.45312L31.425 175.4375Q31.425 174.10938 32.05 173.32812Q32.534374 172.71875 33.3 172.71875Q33.659374 172.71875 33.971874 172.875Q34.3 173.01562 34.51875 173.26562Q34.659374 173.4375 34.83125 173.79688Q35.003124 174.15625 35.08125 174.4375Q35.190624 174.85938 35.190624 175.4375ZM34.76875 175.48438Q34.76875 174.90625 34.596874 174.40625Q34.440624 173.90625 34.2375 173.60938Q34.1125 173.4375 33.925 173.3125Q33.64375 173.14062 33.3 173.14062Q32.6125 173.14062 32.221874 173.84375Q31.83125 174.54688 31.83125 175.48438L31.83125 176.39062Q31.83125 176.96875 31.9875 177.46875Q32.159374 177.96875 32.3625 178.26562Q32.4875 178.4375 32.675 178.5625Q32.95625 178.73438 33.315624 178.73438Q33.9875 178.73438 34.378124 178.03125Q34.76875 177.32812 34.76875 176.39062L34.76875 175.48438Z" fill-rule="nonzero"/><path fill="#b7b7b7" d="M21.503124 96.93125L21.503124 102.74375L22.909374 102.74375Q23.05 102.74375 23.1125 102.80625Q23.190624 102.85313 23.190624 102.94688Q23.190624 103.025 23.1125 103.0875Q23.05 103.15 22.909374 103.15L19.690624 103.15Q19.534374 103.15 19.471874 103.0875Q19.409374 103.025 19.409374 102.94688Q19.409374 102.85313 19.471874 102.80625Q19.534374 102.74375 19.690624 102.74375L21.096874 102.74375L21.096874 97.50938L19.753124 97.93125Q19.659374 97.94688 19.6125 97.94688Q19.534374 97.94688 19.471874 97.9Q19.425 97.8375 19.425 97.74375Q19.425 97.68125 19.471874 97.61875Q19.503124 97.57188 19.628124 97.525L21.503124 96.93125ZM29.190624 99.5875L29.190624 100.60313Q29.190624 101.91563 28.55 102.69688Q28.065624 103.29063 27.315624 103.29063Q26.940624 103.29063 26.6125 103.15Q26.3 103.00938 26.08125 102.74375Q25.940624 102.5875 25.76875 102.22813Q25.596874 101.86875 25.534374 101.57188Q25.425 101.15 25.425 100.60313L25.425 99.5875Q25.425 98.25938 26.05 97.47813Q26.534374 96.86875 27.3 96.86875Q27.659374 96.86875 27.971874 97.025Q28.3 97.16563 28.51875 97.41563Q28.659374 97.5875 28.83125 97.94688Q29.003124 98.30625 29.08125 98.5875Q29.190624 99.00938 29.190624 99.5875ZM28.76875 99.63438Q28.76875 99.05625 28.596874 98.55625Q28.440624 98.05625 28.2375 97.75938Q28.1125 97.5875 27.925 97.4625Q27.64375 97.29063 27.3 97.29063Q26.6125 97.29063 26.221874 97.99375Q25.83125 98.69688 25.83125 99.63438L25.83125 100.54063Q25.83125 101.11875 25.9875 101.61875Q26.159374 102.11875 26.3625 102.41563Q26.4875 102.5875 26.675 102.7125Q26.95625 102.88438 27.315624 102.88438Q27.9875 102.88438 28.378124 102.18125Q28.76875 101.47813 28.76875 100.54063L28.76875 99.63438ZM35.190624 99.5875L35.190624 100.60313Q35.190624 101.91563 34.55 102.69688Q34.065624 103.29063 33.315624 103.29063Q32.940624 103.29063 32.6125 103.15Q32.3 103.00938 32.08125 102.74375Q31.940624 102.5875 31.76875 102.22813Q31.596874 101.86875 31.534374 101.57188Q31.425 101.15 31.425 100.60313L31.425 99.5875Q31.425 98.25938 32.05 97.47813Q32.534374 96.86875 33.3 96.86875Q33.659374 96.86875 33.971874 97.025Q34.3 97.16563 34.51875 97.41563Q34.659374 97.5875 34.83125 97.94688Q35.003124 98.30625 35.08125 98.5875Q35.190624 99.00938 35.190624 99.5875ZM34.76875 99.63438Q34.76875 99.05625 34.596874 98.55625Q34.440624 98.05625 34.2375 97.75938Q34.1125 97.5875 33.925 97.4625Q33.64375 97.29063 33.3 97.29063Q32.6125 97.29063 32.221874 97.99375Q31.83125 98.69688 31.83125 99.63438L31.83125 100.54063Q31.83125 101.11875 31.9875 101.61875Q32.159374 102.11875 32.3625 102.41563Q32.4875 102.5875 32.675 102.7125Q32.95625 102.88438 33.315624 102.88438Q33.9875 102.88438 34.378124 102.18125Q34.76875 101.47813 34.76875 100.54063L34.76875 99.63438Z" fill-rule="nonzero"/><path fill="#b7b7b7" d="M21.503124 21.08125L21.503124 26.89375L22.909374 26.89375Q23.05 26.89375 23.1125 26.95625Q23.190624 27.003124 23.190624 27.096874Q23.190624 27.175 23.1125 27.2375Q23.05 27.3 22.909374 27.3L19.690624 27.3Q19.534374 27.3 19.471874 27.2375Q19.409374 27.175 19.409374 27.096874Q19.409374 27.003124 19.471874 26.95625Q19.534374 26.89375 19.690624 26.89375L21.096874 26.89375L21.096874 21.659374L19.753124 22.08125Q19.659374 22.096874 19.6125 22.096874Q19.534374 22.096874 19.471874 22.05Q19.425 21.9875 19.425 21.89375Q19.425 21.83125 19.471874 21.76875Q19.503124 21.721874 19.628124 21.675L21.503124 21.08125ZM26.175 21.58125L26.175 23.596874Q26.534374 23.440624 26.8625 23.3625Q27.190624 23.284374 27.4875 23.284374Q28.26875 23.284374 28.784374 23.83125Q29.3 24.378124 29.3 25.253124Q29.3 26.2375 28.70625 26.846874Q28.128124 27.440624 27.253124 27.440624Q26.675 27.440624 26.14375 27.190624Q25.753124 27.003124 25.440624 26.7375Q25.253124 26.58125 25.253124 26.471874Q25.253124 26.378124 25.315624 26.315624Q25.378124 26.253124 25.45625 26.253124Q25.534374 26.253124 25.628124 26.346874Q26.3625 27.034374 27.2375 27.034374Q27.95625 27.034374 28.425 26.55Q28.89375 26.05 28.89375 25.2375Q28.89375 24.55 28.4875 24.128124Q28.08125 23.70625 27.45625 23.70625Q26.815624 23.70625 26.175 24.034374Q26.01875 24.1125 25.95625 24.1125Q25.8625 24.1125 25.8 24.065624Q25.753124 24.003124 25.753124 23.89375L25.753124 21.175L28.628124 21.175Q28.76875 21.175 28.83125 21.2375Q28.89375 21.284374 28.89375 21.378124Q28.89375 21.471874 28.83125 21.534374Q28.76875 21.58125 28.628124 21.58125L26.175 21.58125ZM35.190624 23.7375L35.190624 24.753124Q35.190624 26.065624 34.55 26.846874Q34.065624 27.440624 33.315624 27.440624Q32.940624 27.440624 32.6125 27.3Q32.3 27.159374 32.08125 26.89375Q31.940624 26.7375 31.76875 26.378124Q31.596874 26.01875 31.534374 25.721874Q31.425 25.3 31.425 24.753124L31.425 23.7375Q31.425 22.409374 32.05 21.628124Q32.534374 21.01875 33.3 21.01875Q33.659374 21.01875 33.971874 21.175Q34.3 21.315624 34.51875 21.565624Q34.659374 21.7375 34.83125 22.096874Q35.003124 22.45625 35.08125 22.7375Q35.190624 23.159374 35.190624 23.7375ZM34.76875 23.784374Q34.76875 23.20625 34.596874 22.70625Q34.440624 22.20625 34.2375 21.909374Q34.1125 21.7375 33.925 21.6125Q33.64375 21.440624 33.3 21.440624Q32.6125 21.440624 32.221874 22.14375Q31.83125 22.846874 31.83125 23.784374L31.83125 24.690624Q31.83125 25.26875 31.9875 25.76875Q32.159374 26.26875 32.3625 26.565624Q32.4875 26.7375 32.675 26.8625Q32.95625 27.034374 33.315624 27.034374Q33.9875 27.034374 34.378124 26.33125Q34.76875 25.628124 34.76875 24.690624L34.76875 23.784374Z" fill-rule="nonzero"/><path fill="#000000" d="M153.31894 339.95L153.31894 340.65314L148.30331 340.65314L148.30331 339.95L153.31894 339.95ZM155.69394 343.2L159.47519 343.2L159.47519 343.0125Q159.47519 342.84064 159.53769 342.7625Q159.61581 342.6844 159.72519 342.6844Q159.83456 342.6844 159.89706 342.7625Q159.97519 342.84064 159.97519 343.0125L159.97519 343.7L155.20956 343.7L155.20956 342.96564Q156.70956 341.6219 158.13144 340.23126Q158.78769 339.575 159.03769 339.27814Q159.28769 338.96564 159.36581 338.7469Q159.45956 338.5125 159.45956 338.27814Q159.45956 337.6375 158.94394 337.15314Q158.44394 336.66876 157.72519 336.66876Q157.08456 336.66876 156.58456 337.04376Q156.08456 337.40314 155.94394 337.95Q155.89706 338.09064 155.85019 338.1375Q155.78769 338.1844 155.69394 338.1844Q155.58456 338.1844 155.52206 338.1219Q155.45956 338.0594 155.45956 337.96564Q155.45956 337.6844 155.75644 337.2Q156.06894 336.71564 156.60019 336.45Q157.14706 336.16876 157.72519 336.16876Q158.64706 336.16876 159.30331 336.8094Q159.95956 337.45 159.95956 338.2625Q159.95956 338.59064 159.85019 338.8875Q159.74081 339.16876 159.47519 339.5125Q159.20956 339.84064 158.52206 340.5125Q156.78769 342.23126 155.69394 343.16876L155.69394 343.2ZM167.06894 339.41876L167.06894 340.6375Q167.06894 342.21564 166.31894 343.15314Q165.72519 343.8719 164.81894 343.8719Q164.38144 343.8719 163.99081 343.7Q163.61581 343.52814 163.35019 343.21564Q163.17831 343.02814 162.97519 342.60626Q162.77206 342.16876 162.69394 341.8094Q162.55331 341.3094 162.55331 340.6375L162.55331 339.41876Q162.55331 337.825 163.30331 336.90314Q163.89706 336.16876 164.80331 336.16876Q165.24081 336.16876 165.61581 336.34064Q166.00644 336.5125 166.27206 336.825Q166.44394 337.02814 166.64706 337.46564Q166.85019 337.8875 166.94394 338.23126Q167.06894 338.73126 167.06894 339.41876ZM166.58456 339.48126Q166.58456 338.77814 166.38144 338.1844Q166.17831 337.575 165.94394 337.23126Q165.78769 337.0125 165.55331 336.8719Q165.22519 336.66876 164.80331 336.66876Q163.97519 336.66876 163.50644 337.5125Q163.03769 338.35626 163.03769 339.48126L163.03769 340.5594Q163.03769 341.2625 163.24081 341.8719Q163.44394 342.46564 163.69394 342.825Q163.83456 343.02814 164.06894 343.16876Q164.39706 343.3875 164.81894 343.3875Q165.64706 343.3875 166.11581 342.54376Q166.58456 341.6844 166.58456 340.5594L166.58456 339.48126Z" fill-rule="nonzero"/><path fill="#000000" d="M287.12302 339.95L287.12302 340.65314L282.1074 340.65314L282.1074 339.95L287.12302 339.95ZM291.8574 336.2469L291.8574 343.2L293.5449 343.2Q293.71677 343.2 293.7949 343.27814Q293.87302 343.34064 293.87302 343.45Q293.87302 343.5594 293.7949 343.6375Q293.71677 343.7 293.5449 343.7L289.68552 343.7Q289.49802 343.7 289.4199 343.6375Q289.3574 343.5594 289.3574 343.45Q289.3574 343.34064 289.4199 343.27814Q289.49802 343.2 289.68552 343.2L291.37302 343.2L291.37302 336.91876L289.76364 337.4344Q289.63864 337.46564 289.59177 337.46564Q289.49802 337.46564 289.4199 337.40314Q289.3574 337.325 289.3574 337.21564Q289.3574 337.1375 289.4199 337.0594Q289.46677 337.0125 289.6074 336.95L291.8574 336.2469ZM300.87302 339.41876L300.87302 340.6375Q300.87302 342.21564 300.12302 343.15314Q299.52927 343.8719 298.62302 343.8719Q298.18552 343.8719 297.7949 343.7Q297.4199 343.52814 297.15427 343.21564Q296.9824 343.02814 296.77927 342.60626Q296.57614 342.16876 296.49802 341.8094Q296.3574 341.3094 296.3574 340.6375L296.3574 339.41876Q296.3574 337.825 297.1074 336.90314Q297.70114 336.16876 298.6074 336.16876Q299.0449 336.16876 299.4199 336.34064Q299.81052 336.5125 300.07614 336.825Q300.24802 337.02814 300.45114 337.46564Q300.65427 337.8875 300.74802 338.23126Q300.87302 338.73126 300.87302 339.41876ZM300.38864 339.48126Q300.38864 338.77814 300.18552 338.1844Q299.9824 337.575 299.74802 337.23126Q299.59177 337.0125 299.3574 336.8719Q299.02927 336.66876 298.6074 336.66876Q297.77927 336.66876 297.31052 337.5125Q296.84177 338.35626 296.84177 339.48126L296.84177 340.5594Q296.84177 341.2625 297.0449 341.8719Q297.24802 342.46564 297.49802 342.825Q297.63864 343.02814 297.87302 343.16876Q298.20114 343.3875 298.62302 343.3875Q299.45114 343.3875 299.9199 342.54376Q300.38864 341.6844 300.38864 340.5594L300.38864 339.48126Z" fill-rule="nonzero"/><path fill="#000000" d="M427.67712 339.41876L427.67712 340.6375Q427.67712 342.21564 426.92712 343.15314Q426.33337 343.8719 425.42712 343.8719Q424.98962 343.8719 424.599 343.7Q424.224 343.52814 423.95837 343.21564Q423.7865 343.02814 423.58337 342.60626Q423.38025 342.16876 423.30212 341.8094Q423.1615 341.3094 423.1615 340.6375L423.1615 339.41876Q423.1615 337.825 423.9115 336.90314Q424.50525 336.16876 425.4115 336.16876Q425.849 336.16876 426.224 336.34064Q426.61462 336.5125 426.88025 336.825Q427.05212 337.02814 427.25525 337.46564Q427.45837 337.8875 427.55212 338.23126Q427.67712 338.73126 427.67712 339.41876ZM427.19275 339.48126Q427.19275 338.77814 426.98962 338.1844Q426.7865 337.575 426.55212 337.23126Q426.39587 337.0125 426.1615 336.8719Q425.83337 336.66876 425.4115 336.66876Q424.58337 336.66876 424.11462 337.5125Q423.64587 338.35626 423.64587 339.48126L423.64587 340.5594Q423.64587 341.2625 423.849 341.8719Q424.05212 342.46564 424.30212 342.825Q424.44275 343.02814 424.67712 343.16876Q425.00525 343.3875 425.42712 343.3875Q426.25525 343.3875 426.724 342.54376Q427.19275 341.6844 427.19275 340.5594L427.19275 339.48126Z" fill-rule="nonzero"/><path fill="#000000" d="M555.9656 336.2469L555.9656 343.2L557.6531 343.2Q557.82495 343.2 557.9031 343.27814Q557.9812 343.34064 557.9812 343.45Q557.9812 343.5594 557.9031 343.6375Q557.82495 343.7 557.6531 343.7L553.7937 343.7Q553.6062 343.7 553.5281 343.6375Q553.4656 343.5594 553.4656 343.45Q553.4656 343.34064 553.5281 343.27814Q553.6062 343.2 553.7937 343.2L555.4812 343.2L555.4812 336.91876L553.8718 337.4344Q553.7468 337.46564 553.69995 337.46564Q553.6062 337.46564 553.5281 337.40314Q553.4656 337.325 553.4656 337.21564Q553.4656 337.1375 553.5281 337.0594Q553.57495 337.0125 553.7156 336.95L555.9656 336.2469ZM564.9812 339.41876L564.9812 340.6375Q564.9812 342.21564 564.2312 343.15314Q563.63745 343.8719 562.7312 343.8719Q562.2937 343.8719 561.9031 343.7Q561.5281 343.52814 561.26245 343.21564Q561.0906 343.02814 560.88745 342.60626Q560.6843 342.16876 560.6062 341.8094Q560.4656 341.3094 560.4656 340.6375L560.4656 339.41876Q560.4656 337.825 561.2156 336.90314Q561.8093 336.16876 562.7156 336.16876Q563.1531 336.16876 563.5281 336.34064Q563.9187 336.5125 564.1843 336.825Q564.3562 337.02814 564.5593 337.46564Q564.76245 337.8875 564.8562 338.23126Q564.9812 338.73126 564.9812 339.41876ZM564.4968 339.48126Q564.4968 338.77814 564.2937 338.1844Q564.0906 337.575 563.8562 337.23126Q563.69995 337.0125 563.4656 336.8719Q563.13745 336.66876 562.7156 336.66876Q561.88745 336.66876 561.4187 337.5125Q560.94995 338.35626 560.94995 339.48126L560.94995 340.5594Q560.94995 341.2625 561.1531 341.8719Q561.3562 342.46564 561.6062 342.825Q561.7468 343.02814 561.9812 343.16876Q562.3093 343.3875 562.7312 343.3875Q563.5593 343.3875 564.0281 342.54376Q564.4968 341.6844 564.4968 340.5594L564.4968 339.48126Z" fill-rule="nonzero"/></svg>