<?xml version="1.0" encoding="utf-8"?>
<!-- Generator: Adobe Illustrator 21.0.0, SVG Export Plug-In . SVG Version: 6.00 Build 0)  -->
<svg version="1.1" id="레이어_1" xmlns="http://www.w3.org/2000/svg" xmlns:xlink="http://www.w3.org/1999/xlink" x="0px"
	 y="0px" viewBox="0 0 718.4 161.2" style="enable-background:new 0 0 718.4 161.2;" xml:space="preserve">
<style type="text/css">
	.st0{fill:#fff;}
</style>
<g>
	<path class="st0" d="M91.9,129.9l1.8,2.7l-17,13.6l-10.5-5l-3-11.6l-21.6,16.6l-21-10.6l-6.7-27.2l9.9-32.5l27.8-12.3l18.2,6.3
		l3-24.9l-1.7-10.5h-9.5l0.4-3.5l26.2-5.6L75.6,135.9l3.8,2.7L91.9,129.9z M69.4,73.5l-27.8-3.2L24.3,97.2l6.6,31.7l14.3,7.5
		l18.6-11.5L69.4,73.5z"/>
	<path class="st0" d="M160.1,135.9l3.6,2.7l12.6-8.6l1.8,2.7l-17,13.6l-9.1-4.3l-3.2-13.1l-21.3,17.4l-21-10.6l-6.7-27.2l9.9-32.5
		l27.9-12.3l16.8,6.3L168,65L160.1,135.9z M148.2,124.9l5.7-51.4l-26.3-3.2l-17.4,26.9l6.5,29.2l15.3,9.6L148.2,124.9z"/>
	<path class="st0" d="M191.1,126.9h12l4.6,12.4l-3.9,5H192l-4.7-12.6L191.1,126.9z"/>
	<path class="st0" d="M306.9,132.5l-17,13.6l-10.8-4l-2.9-10.6l7.5-51.8l-9.1-10.6l-27.9,16.3l-6.6,58.9H227l11.1-99.4l-1.7-10.5
		h-9.5l0.4-3.5l26.2-5.6l-6.4,56.9l23.5-18.8l14.2,2.3L297,79.8l-8.1,56.1l3.8,2.7l12.4-8.6L306.9,132.5z"/>
	<path class="st0" d="M376.9,96.9h-51.6l12.4,37.3h22.7l14.5-9.5l2.6,3.3l-24.6,18.1l-28-7.6L313.8,101L324.4,77l36.7-13.4l14.7,8
		L376.9,96.9z M365.9,77.1l-8.5-6.3l-17.6,3l-13.6,18.6h27.2l11-3.5L365.9,77.1z"/>
	<path class="st0" d="M448.4,135.9l3.6,2.7l12.6-8.6l1.8,2.7l-17,13.6l-9.1-4.3l-3.2-13.1l-21.3,17.4l-21-10.6l-6.7-27.2l9.9-32.5
		l27.9-12.3l16.8,6.3l13.5-4.8L448.4,135.9z M436.5,124.9l5.7-51.4l-26.3-3.2l-17.4,26.9l6.5,29.2l15.2,9.6L436.5,124.9z"/>
	<path class="st0" d="M550.6,129.9l1.8,2.7l-17,13.6l-10.5-5l-3-11.6l-21.6,16.6l-21-10.6l-6.7-27.2l9.9-32.5l27.8-12.3l18.2,6.3
		l3-24.9l-1.7-10.5h-9.5l0.4-3.5l26.2-5.6l-12.4,110.5l3.8,2.7L550.6,129.9z M528.1,73.5l-27.8-3.2L483,97.2l6.6,31.7l14.3,7.5
		l18.6-11.5L528.1,73.5z"/>
	<path class="st0" d="M584.1,136.1l21.4,13.9l-2.5,3.5l-27.7-16.6l-15.9-39.8l4.2-37.2l24.8-37.7l31-14.5l1.6,3.5l-24.4,13.9
		l-22.3,37.2l-4.1,36.6L584.1,136.1z"/>
	<path class="st0" d="M680,25.1l-21.4-13.9l2.5-3.5l27.7,16.6l15.9,39.8l-4.2,37.2L675.7,139l-31,14.5l-1.6-3.5l24.4-13.9l22.3-37.2
		l4.1-36.6L680,25.1z"/>
</g>
</svg>
